<svg width="189" height="126" viewBox="0 0 189 126" fill="none" xmlns="http://www.w3.org/2000/svg">
<path d="M85.1723 89.2857H92.0294V96.1429H85.1723V89.2857ZM92.0294 89.2857H98.8866V96.1429H92.0294V89.2857ZM92.0294 96.1429H98.8866V103H92.0294V96.1429ZM85.1723 96.1429H92.0294V103H85.1723V96.1429ZM85.1723 75.5714H92.0294V82.4286H85.1723V75.5714ZM92.0294 75.5714H98.8866V82.4286H92.0294V75.5714ZM92.0294 68.7143H98.8866V75.5714H92.0294V68.7143ZM85.1723 68.7143H92.0294V75.5714H85.1723V68.7143ZM85.1723 61.8571H92.0294V68.7143H85.1723V61.8571ZM92.0294 61.8571H98.8866V68.7143H92.0294V61.8571ZM98.8866 61.8571H105.744V68.7143H98.8866V61.8571ZM92.0294 55H98.8866V61.8571H92.0294V55ZM98.8866 55H105.744V61.8571H98.8866V55ZM105.744 55H112.601V61.8571H105.744V55ZM105.744 48.1429H112.601V55H105.744V48.1429ZM98.8866 48.1429H105.744V55H98.8866V48.1429ZM98.8866 41.2857H105.744V48.1429H98.8866V41.2857ZM105.744 41.2857H112.601V48.1429H105.744V41.2857ZM98.8866 34.4286H105.744V41.2857H98.8866V34.4286ZM92.0294 34.4286H98.8866V41.2857H92.0294V34.4286ZM92.0294 41.2857H98.8866V48.1429H92.0294V41.2857ZM85.1723 41.2857H92.0294V48.1429H85.1723V41.2857ZM78.3151 41.2857H85.1723V48.1429H78.3151V41.2857ZM78.3151 34.4286H85.1723V41.2857H78.3151V34.4286ZM85.1723 34.4286H92.0294V41.2857H85.1723V34.4286ZM71.458 41.2857H78.3151V48.1429H71.458V41.2857ZM71.458 48.1429H78.3151V55H71.458V48.1429ZM78.3151 48.1429H85.1723V55H78.3151V48.1429Z" fill="white"/>
<path d="M60.8844 94.9958L65.3382 92.4244L67.9097 96.8783L63.4558 99.4497L60.8844 94.9958ZM65.3382 92.4244L69.7921 89.853L72.3635 94.3068L67.9097 96.8783L65.3382 92.4244ZM67.9097 96.8783L72.3635 94.3068L74.9349 98.7607L70.4811 101.332L67.9097 96.8783ZM63.4558 99.4497L67.9097 96.8783L70.4811 101.332L66.0272 103.904L63.4558 99.4497ZM55.7415 86.0881L60.1954 83.5167L62.7668 87.9706L58.313 90.542L55.7415 86.0881ZM60.1954 83.5167L64.6492 80.9453L67.2206 85.3991L62.7668 87.9706L60.1954 83.5167ZM57.6239 79.0629L62.0778 76.4914L64.6492 80.9453L60.1954 83.5167L57.6239 79.0629ZM53.1701 81.6343L57.6239 79.0629L60.1954 83.5167L55.7415 86.0881L53.1701 81.6343ZM50.5987 77.1805L55.0525 74.609L57.6239 79.0629L53.1701 81.6343L50.5987 77.1805ZM55.0525 74.609L59.5064 72.0376L62.0778 76.4914L57.6239 79.0629L55.0525 74.609ZM59.5064 72.0376L63.9602 69.4662L66.5316 73.92L62.0778 76.4914L59.5064 72.0376ZM52.4811 70.1552L56.9349 67.5838L59.5064 72.0376L55.0525 74.609L52.4811 70.1552ZM56.9349 67.5838L61.3888 65.0123L63.9602 69.4662L59.5064 72.0376L56.9349 67.5838ZM61.3888 65.0123L65.8426 62.4409L68.414 66.8947L63.9602 69.4662L61.3888 65.0123ZM58.8173 60.5585L63.2712 57.9871L65.8426 62.4409L61.3888 65.0123L58.8173 60.5585ZM54.3635 63.1299L58.8173 60.5585L61.3888 65.0123L56.9349 67.5838L54.3635 63.1299ZM51.7921 58.6761L56.2459 56.1046L58.8173 60.5585L54.3635 63.1299L51.7921 58.6761ZM56.2459 56.1046L60.6998 53.5332L63.2712 57.9871L58.8173 60.5585L56.2459 56.1046ZM49.2206 54.2222L53.6745 51.6508L56.2459 56.1046L51.7921 58.6761L49.2206 54.2222ZM44.7668 56.7936L49.2206 54.2222L51.7921 58.6761L47.3382 61.2475L44.7668 56.7936ZM47.3382 61.2475L51.7921 58.6761L54.3635 63.1299L49.9097 65.7013L47.3382 61.2475ZM42.8844 63.8189L47.3382 61.2475L49.9097 65.7013L45.4558 68.2728L42.8844 63.8189ZM38.4305 66.3903L42.8844 63.8189L45.4558 68.2728L41.002 70.8442L38.4305 66.3903ZM35.8591 61.9365L40.313 59.3651L42.8844 63.8189L38.4305 66.3903L35.8591 61.9365ZM40.313 59.3651L44.7668 56.7936L47.3382 61.2475L42.8844 63.8189L40.313 59.3651ZM33.9767 68.9618L38.4305 66.3903L41.002 70.8442L36.5481 73.4156L33.9767 68.9618ZM36.5481 73.4156L41.002 70.8442L43.5734 75.298L39.1195 77.8695L36.5481 73.4156ZM41.002 70.8442L45.4558 68.2728L48.0272 72.7266L43.5734 75.298L41.002 70.8442Z" fill="#0D398F"/>
<path d="M114.17 88.6691L118.624 91.2406L116.053 95.6944L111.599 93.123L114.17 88.6691ZM118.624 91.2406L123.078 93.812L120.506 98.2658L116.053 95.6944L118.624 91.2406ZM116.053 95.6944L120.506 98.2658L117.935 102.72L113.481 100.148L116.053 95.6944ZM111.599 93.123L116.053 95.6944L113.481 100.148L109.027 97.5768L111.599 93.123ZM119.313 79.7614L123.767 82.3329L121.195 86.7867L116.742 84.2153L119.313 79.7614ZM123.767 82.3329L128.221 84.9043L125.649 89.3581L121.195 86.7867L123.767 82.3329ZM126.338 77.879L130.792 80.4504L128.221 84.9043L123.767 82.3329L126.338 77.879ZM121.884 75.3076L126.338 77.879L123.767 82.3329L119.313 79.7614L121.884 75.3076ZM124.456 70.8537L128.91 73.4252L126.338 77.879L121.884 75.3076L124.456 70.8537ZM128.91 73.4252L133.363 75.9966L130.792 80.4504L126.338 77.879L128.91 73.4252ZM133.363 75.9966L137.817 78.568L135.246 83.0219L130.792 80.4504L133.363 75.9966ZM131.481 68.9713L135.935 71.5428L133.363 75.9966L128.91 73.4252L131.481 68.9713ZM135.935 71.5428L140.389 74.1142L137.817 78.568L133.363 75.9966L135.935 71.5428ZM140.389 74.1142L144.843 76.6856L142.271 81.1395L137.817 78.568L140.389 74.1142ZM142.96 69.6603L147.414 72.2318L144.843 76.6856L140.389 74.1142L142.96 69.6603ZM138.506 67.0889L142.96 69.6603L140.389 74.1142L135.935 71.5428L138.506 67.0889ZM141.078 62.6351L145.532 65.2065L142.96 69.6603L138.506 67.0889L141.078 62.6351ZM145.532 65.2065L149.985 67.7779L147.414 72.2318L142.96 69.6603L145.532 65.2065ZM143.649 58.1812L148.103 60.7527L145.532 65.2065L141.078 62.6351L143.649 58.1812ZM139.195 55.6098L143.649 58.1812L141.078 62.6351L136.624 60.0636L139.195 55.6098ZM136.624 60.0636L141.078 62.6351L138.506 67.0889L134.053 64.5175L136.624 60.0636ZM132.17 57.4922L136.624 60.0636L134.053 64.5175L129.599 61.9461L132.17 57.4922ZM127.716 54.9208L132.17 57.4922L129.599 61.9461L125.145 59.3746L127.716 54.9208ZM130.288 50.4669L134.742 53.0384L132.17 57.4922L127.716 54.9208L130.288 50.4669ZM134.742 53.0384L139.195 55.6098L136.624 60.0636L132.17 57.4922L134.742 53.0384ZM123.262 52.3494L127.716 54.9208L125.145 59.3746L120.691 56.8032L123.262 52.3494ZM120.691 56.8032L125.145 59.3746L122.573 63.8285L118.12 61.257L120.691 56.8032ZM125.145 59.3746L129.599 61.9461L127.027 66.3999L122.573 63.8285L125.145 59.3746Z" fill="#0D398F"/>
</svg>
